<?xml version="1.0" encoding="utf-8"?>
<!-- Generator: Adobe Illustrator 26.2.1, SVG Export Plug-In . SVG Version: 6.00 Build 0)  -->
<svg version="1.1" id="Layer_1" xmlns="http://www.w3.org/2000/svg" xmlns:xlink="http://www.w3.org/1999/xlink" x="0px" y="0px"
	 viewBox="0 0 261 93" style="enable-background:new 0 0 261 93;" xml:space="preserve">
<style type="text/css">
	.st0{fill:#0093DD;}
</style>
<g>
	<path class="st0" d="M35.78,29.64c-0.23,0.17-0.42,0.24-0.46,0.37c-0.48,1.24-0.93,2.48-1.4,3.72c-0.33,0.88-0.7,1.74-1.02,2.62
		c-0.09,0.25-0.07,0.53-0.11,0.84c-0.09,0.11-0.28,0.27-0.36,0.47c-0.79,2.02-1.57,4.04-2.34,6.06c-0.58,1.52-1.16,3.05-1.72,4.58
		c-0.09,0.26-0.08,0.56-0.12,0.9c-0.08,0.09-0.29,0.24-0.37,0.45c-0.75,1.98-1.48,3.96-2.23,5.94c-0.34,0.9-0.72,1.79-1.13,2.79
		c-0.34-0.81-0.63-1.51-0.94-2.2c-0.61-1.37-1.25-2.72-1.85-4.09c-0.68-1.56-1.32-3.14-1.98-4.71c-0.49-1.18-0.98-2.36-1.49-3.53
		c-0.75-1.73-1.52-3.46-2.27-5.19c-0.43-1-0.79-2.04-1.28-3.01c-0.75-1.48-1.2-3.08-2-4.53c-0.19-0.34-0.28-0.72-0.45-1.07
		c-0.07-0.14-0.24-0.23-0.36-0.34c-0.04,0.03-0.08,0.06-0.12,0.09c0,8.89,0,17.79,0,26.72c-3.81,0-7.59,0-11.41,0
		c0-0.21,0-0.39,0-0.56c0-15.9,0-31.79,0-47.69c0-0.63,0-0.63,0.64-0.63c5.8,0,11.61,0.01,17.41-0.01c0.46,0,0.63,0.17,0.78,0.58
		c0.67,1.82,1.39,3.62,2.09,5.43c1.09,2.81,2.17,5.63,3.28,8.43c0.17,0.43,0.47,0.82,0.64,1.25c0.16,0.39,0.19,0.82,0.33,1.21
		c0.27,0.77,0.58,1.52,0.88,2.28c0.04,0,0.09,0.01,0.13,0.01c0.14-0.29,0.27-0.58,0.41-0.88c0.19-0.41,0.37-0.83,0.55-1.25
		c0.79-1.9,1.58-3.79,2.37-5.69c0.65-1.57,1.31-3.13,1.97-4.7c0.57-1.35,1.22-2.68,1.69-4.06c0.23-0.66,0.56-1.26,0.79-1.9
		c0.23-0.65,0.54-0.72,1.12-0.72c5.15,0.02,10.3,0.01,15.45,0.01c0.19,0,0.38,0,0.6,0c0,16.32,0,32.58,0,48.88
		c-0.14,0.01-0.29,0.03-0.43,0.03c-4.92,0-9.84-0.01-14.76,0.01c-0.45,0-0.54-0.14-0.54-0.56c0.01-8.54,0.01-17.08,0.01-25.61
		C35.78,30.2,35.78,30,35.78,29.64z"/>
	<path class="st0" d="M101.95,7.69c4.02,0,7.97,0,11.96,0c0,0.26,0,0.47,0,0.68c0,9.82-0.03,19.63,0.03,29.45
		c0.01,2.08,0.38,4.16,1.75,5.87c0.32,0.4,0.81,0.66,1.17,1.03c0.71,0.73,1.62,0.99,2.58,1.17c0.2,0.04,0.41,0.1,0.62,0.09
		c0.72-0.01,1.45-0.16,2.15-0.05c0.72,0.11,1.33-0.1,1.99-0.24c1-0.21,1.94-0.55,2.71-1.24c0.46-0.41,0.82-0.89,1.15-1.45
		c0.36-0.62,0.59-1.27,0.82-1.93c0.05-0.15-0.02-0.37-0.08-0.54c-0.1-0.3-0.01-0.52,0.21-0.72c0.11-0.11,0.25-0.23,0.27-0.37
		c0.14-0.76,0.31-1.52,0.36-2.28c0.08-1.21,0.1-2.43,0.1-3.64c0.01-8.39,0-16.78,0-25.17c0-0.83-0.06-0.73,0.75-0.72
		c3.53,0.01,7.05,0.02,10.58,0.03c0.18,0,0.35,0.02,0.59,0.03c0,0.22,0,0.41,0,0.6c0,10.59,0,21.17,0.01,31.76
		c0,0.28,0.1,0.56,0.16,0.85c-0.06,0.12-0.23,0.29-0.25,0.47c-0.18,1.58-0.52,3.12-1.1,4.61c-0.06,0.14,0.06,0.35,0.02,0.5
		c-0.06,0.21-0.19,0.4-0.32,0.58c-0.08,0.12-0.25,0.18-0.32,0.3c-1.27,2.37-2.96,4.36-5.18,5.89c-0.69,0.48-1.41,0.93-2.16,1.31
		c-1.94,1-3.99,1.65-6.14,2.05c-2.13,0.4-4.27,0.59-6.42,0.48c-1.5-0.07-2.99-0.36-4.5-0.48c-1.01-0.08-1.94-0.45-2.89-0.73
		c-0.97-0.28-1.92-0.69-2.8-1.17c-1.7-0.94-3.26-2.09-4.42-3.68c-0.75-1.02-1.45-2.1-2.01-3.23c-0.42-0.84-0.61-1.8-0.85-2.71
		c-0.76-2.91-0.57-5.89-0.58-8.86c-0.01-9.29-0.01-18.58,0-27.87C101.92,8.15,101.93,7.93,101.95,7.69z"/>
	<path class="st0" d="M211.71,6.74c4,0,7.93,0,11.91,0c0,0.21,0,0.37,0,0.53c0,10.6,0,21.2-0.02,31.8c0,0.8-0.22,1.6-0.27,2.41
		c-0.09,1.45-0.67,2.77-1.13,4.11c-0.28,0.82-0.83,1.57-1.31,2.31c-0.42,0.64-0.92,1.22-1.39,1.83c-0.68,0.87-1.53,1.54-2.4,2.2
		c-0.1,0.08-0.23,0.15-0.29,0.25c-0.24,0.37-0.55,0.56-0.98,0.71c-0.57,0.19-1.09,0.56-1.63,0.84c-1.33,0.7-2.72,1.2-4.18,1.55
		c-1.63,0.39-3.25,0.74-4.94,0.77c-1.26,0.02-2.51,0.11-3.77,0.09c-0.96-0.01-1.93-0.04-2.87-0.22c-1.28-0.24-2.53-0.65-3.8-0.94
		c-1.22-0.28-2.28-0.9-3.37-1.44c-0.87-0.43-1.59-1.17-2.37-1.76c-0.25-0.19-0.53-0.35-0.76-0.57c-0.13-0.12-0.17-0.33-0.28-0.47
		c-0.35-0.46-0.72-0.9-1.08-1.36c-0.58-0.73-0.99-1.56-1.38-2.39c-0.93-1.99-1.34-4.1-1.42-6.28c-0.05-1.27-0.1-2.54-0.1-3.82
		c-0.01-9.85,0-19.7,0-29.54c0-0.67,0-0.68,0.66-0.67c3.53,0.01,7.05,0.02,10.58,0.03c0.24,0,0.48,0.02,0.78,0.03
		c0,0.25,0,0.45,0,0.66c0,9.82-0.02,19.63,0.02,29.45c0.01,1.9,0.34,3.79,1.41,5.44c0.93,1.43,2.23,2.33,3.92,2.61
		c1.55,0.26,3.1,0.25,4.66-0.08c1.3-0.27,2.46-0.75,3.39-1.71c0.73-0.75,1.13-1.69,1.45-2.67c0.55-1.69,0.86-3.44,0.87-5.22
		c0.05-9.3,0.08-18.6,0.11-27.9C211.71,7.14,211.71,6.95,211.71,6.74z"/>
	<path class="st0" d="M70.83,34.53c-0.01,0.15-0.02,0.31-0.02,0.46c0,6.64,0,13.27,0,19.91c0,1.02,0,1.02-1.04,1.02
		c-3.41,0-6.82,0-10.23,0c-0.19,0-0.39,0-0.62,0c0-16.1,0-32.16,0-48.29c0.19,0,0.37,0,0.54,0c4.43,0,8.85-0.04,13.28,0.02
		c1.79,0.02,3.57,0.28,5.36,0.41c0.24,0.02,0.49-0.08,0.74-0.11c0.08-0.01,0.2-0.01,0.23,0.03c0.34,0.59,1,0.41,1.5,0.62
		c0.58,0.24,1.24,0.31,1.84,0.51c2.08,0.72,3.99,1.77,5.55,3.34c0.65,0.65,1.15,1.44,1.73,2.15c0.16,0.2,0.38,0.35,0.64,0.58
		c-0.14,1.01,0.64,1.91,0.85,2.97c0.41,2.14,0.65,4.26,0.34,6.45c-0.2,1.46-0.71,2.81-1.23,4.16c-0.2,0.52-0.39,1.07-0.72,1.51
		c-0.56,0.75-1.24,1.42-1.85,2.14c-0.85,1-2.02,1.54-3.08,2.24c-0.17,0.11-0.4,0.11-0.68,0.18c1.01,1.76,2,3.5,2.99,5.24
		c1,1.76,1.94,3.55,2.98,5.28c1.03,1.71,1.94,3.49,2.95,5.22c1.03,1.75,2.03,3.52,3.08,5.35c-0.27,0.02-0.47,0.06-0.66,0.06
		c-4.12,0-8.23-0.05-12.35,0.04c-0.82,0.02-1.09-0.26-1.38-0.87c-0.52-1.1-1.1-2.17-1.67-3.25c-0.1-0.19-0.3-0.34-0.44-0.51
		c-0.03-0.03-0.06-0.07-0.08-0.11c-0.69-2.03-1.81-3.85-2.78-5.75c-0.41-0.8-0.81-1.6-1.21-2.39c-1.48-2.87-2.96-5.74-4.44-8.61
		C70.9,34.53,70.87,34.53,70.83,34.53z M78.94,26.76c0.24-0.23,0.54-0.37,0.6-0.59c0.34-1.27,0.22-2.55-0.03-3.82
		c-0.05-0.28-0.28-0.52-0.41-0.77c-0.01-0.18,0.03-0.41-0.05-0.58c-0.15-0.3-0.38-0.56-0.56-0.84c-0.5-0.77-1.36-1.01-2.11-1.33
		c-1.75-0.74-3.64-0.82-5.53-0.8c0,4.43,0,8.85,0,13.37c1.12-0.12,2.19-0.18,3.25-0.35c1.44-0.23,2.79-0.7,3.85-1.77
		c0.67-0.68,1.19-1.46,1.44-2.43C79.23,26.83,79.11,26.8,78.94,26.76z"/>
	<path class="st0" d="M241.56,7.67c0,12.38,0,24.74,0,37.19c6.37,0,12.69,0,19.08,0c-0.06,0.23-0.09,0.38-0.13,0.53
		c-0.6,2.16-1.2,4.32-1.82,6.48c-0.37,1.3-0.75,2.59-1.16,3.87c-0.04,0.12-0.24,0.2-0.38,0.28c-0.06,0.03-0.16,0.01-0.24,0.01
		c-8.89,0-17.78,0-26.66,0c-0.64,0-0.64,0-0.64-0.64c0-15.7,0-31.4,0-47.1c0-0.36-0.01-0.62,0.49-0.62
		c3.71,0.01,7.41-0.01,11.12-0.02C241.32,7.64,241.41,7.66,241.56,7.67z"/>
	<path class="st0" d="M155.49,42.6c0.23,0.11,0.33,0.16,0.53,0.26c-0.73,0.1-0.8,0.69-1.04,1.09c-0.4,0.67-0.94,1.08-1.68,1.25
		c-0.65,0.15-1.27,0.03-1.89-0.19c-0.23-0.08-0.48-0.09-0.69-0.13c-0.17-0.22-0.3-0.48-0.5-0.66c-1.02-0.91-1.07-2.47-0.37-3.42
		c0.47-0.62,1.21-0.85,1.85-1.21c0.48-0.27,1-0.53,1.39-0.91c0.41-0.4,0.46-0.99,0.35-1.56c-0.15-0.74-0.59-1.22-1.32-1.46
		c-0.39-0.13-0.74-0.86-0.68-1.44c0.17,0.24,0.27,0.48,0.45,0.61c0.53,0.4,1.09,0.75,1.63,1.12c0.08,0.05,0.17,0.1,0.25,0.15
		c0.61,0.42,1.17,0.9,1.05,1.73c-0.13,0.88-0.61,1.54-1.47,1.86c-0.57,0.22-1.18,0.34-1.74,0.6c-0.76,0.34-1.1,0.69-0.99,1.47
		c0.03,0.24,0.15,0.5,0.32,0.68c0.7,0.76,1.57,1.16,2.61,1.06c0.77-0.07,1.24-0.63,1.36-1.49c0.04-0.31,0.09-0.63,0.23-0.9
		c0.26-0.5,0.49-1,0.97-1.38c1-0.8,2.15-0.98,3.36-1.02c0.73-0.02,1.47,0,2.19-0.13c0.71-0.12,1.52-0.14,1.96-0.89
		c0.97-0.26,1.3-1.1,1.59-1.9c0.31-0.84,0.31-1.73,0.18-2.64c-0.2-1.48-0.93-2.7-1.81-3.81c-0.78-0.98-1.79-1.78-2.92-2.34
		c-1.07-0.53-2.19-1.02-3.44-0.95c-0.7,0.04-1.31,0.42-1.37,0.88c-0.06,0.46-0.08,0.96,0.04,1.4c0.16,0.57,0.41,1.13,0.73,1.63
		c0.44,0.69,0.96,1.34,1.48,1.97c0.23,0.28,0.57,0.46,0.83,0.77c-0.09-0.03-0.18-0.03-0.26-0.08c-1.07-0.61-1.89-1.48-2.68-2.41
		c-1.03-1.21-1.87-2.52-2.51-3.96c-0.33-0.76-0.56-1.57-0.78-2.37c-0.4-1.42-0.48-2.86-0.32-4.32c0.04-0.34-0.01-0.7,0.03-1.04
		c0.01-0.14,0.15-0.25,0.21-0.39c0.11-0.27,0.21-0.54,0.3-0.81c0.55-1.67,1.69-2.9,3.02-3.95c0.75-0.6,1.57-1.12,2.38-1.63
		c0.26-0.16,0.61-0.16,0.93-0.21c0.91-0.16,1.82-0.45,2.72-0.42c0.98,0.03,1.96,0.33,2.94,0.54c1.22,0.26,2.26,0.96,3.24,1.63
		c1.05,0.72,1.92,1.71,2.86,2.59c0.71,0.67,1.23,1.5,1.68,2.35c0.47,0.89,0.89,1.81,1.27,2.74c0.7,1.75,0.93,3.61,1.18,5.46
		c0.2,1.47,0.02,2.93-0.12,4.38c-0.1,1.06-0.46,2.05-0.88,3.01c-0.44,1-0.96,1.97-1.46,2.95c-0.23,0.45-0.49,0.89-0.7,1.26
		c-0.44,0.45-0.85,0.87-1.25,1.28c-0.14,0.15-0.28,0.3-0.44,0.43c-0.69,0.56-1.38,1.12-2.07,1.67c-0.47,0.37-0.95,0.73-1.52,1.17
		c1.28-1.88,3.1-3.23,4.11-5.2c0.16-0.23,0.31-0.46,0.47-0.69c0.13-0.18,0.31-0.32,0.41-0.51c0.43-0.82,0.79-1.67,1.14-2.53
		c0.82-2,0.9-4.05,0.77-6.12c-0.08-1.36-0.44-2.71-0.71-4.06c-0.27-1.4-0.81-2.7-1.5-3.94c-0.44-0.79-0.94-1.56-1.43-2.35
		c-0.14,0.08-0.25,0.14-0.37,0.21c-0.04-0.07-0.09-0.12-0.08-0.14c0.28-0.52-0.11-0.81-0.41-1.08c-0.54-0.48-1.17-0.87-1.66-1.38
		c-0.81-0.84-1.82-1.28-2.89-1.61c-0.57-0.17-1.17-0.27-1.76-0.32c-0.57-0.05-1.17-0.1-1.73,0.01c-0.9,0.17-1.85,0.32-2.63,0.75
		c-0.56,0.31-1.25,0.6-1.58,1.32c-0.2,0.44-0.78,0.7-1.06,1.13c-0.68,1.04-1,2.23-0.81,3.47c0.07,0.47,0.29,0.95,0.46,1.41
		c0.36,0.93,1.03,1.5,1.74,2.06c0.44,0.35,0.97,0.56,1.46,0.84c0.4,0.23,0.77,0.52,1.19,0.7c1.48,0.62,2.95,1.29,4.27,2.21
		c0.33,0.23,0.6,0.52,0.91,0.77c0.8,0.64,1.26,1.52,1.74,2.39c0.66,1.21,0.98,2.51,0.97,3.87c-0.01,1.33-0.39,2.54-1.25,3.63
		c-0.89,1.13-2.08,1.68-3.38,2.04c-0.87,0.24-1.77,0.35-2.67,0.47c-0.71,0.09-1.44,0.05-2.15,0.15c-0.68,0.1-1.33,0.27-1.7,1.01
		C156.3,41.64,155.88,42.08,155.49,42.6z"/>
	<path class="st0" d="M147.84,50.73c0.87,0.9,1.34,1.86,1.59,2.95c0.13,0.6,0.3,1.23,0.6,1.76c0.47,0.81,1.19,1.29,2.2,1.3
		c0.31,0,0.6,0.26,0.92,0.35c1.74,0.49,3.51,0.48,5.29,0.29c0.12-0.01,0.22-0.16,0.28-0.19c0.24,0,0.46,0.05,0.64-0.01
		c1.46-0.44,2.72-1.2,3.65-2.43c0.49-0.65,0.86-1.35,0.99-2.19c0.1-0.64,0.34-1.27,0.48-1.91c0.07-0.33,0.06-0.68,0.1-1.02
		c0.01-0.14,0.01-0.3,0.09-0.4c0.46-0.57,0.92-1.15,1.42-1.68c0.73-0.76,1.46-1.53,2.25-2.22c0.82-0.71,1.73-1.31,2.56-2
		c0.75-0.62,1.44-1.29,2.16-1.94c0.41-0.37,0.84-0.71,1.23-1.1c0.17-0.17,0.27-0.42,0.43-0.68c0.55-0.11,0.81-0.67,1.11-1.1
		c0.73-1.07,1.45-2.18,2.03-3.33c0.93-1.84,1.67-3.77,2.02-5.81c0.39-2.3,0.37-4.6-0.34-6.85c-0.37-1.17-0.79-2.33-1.21-3.49
		c-0.06-0.15-0.22-0.27-0.31-0.37c0-0.17,0.06-0.35-0.01-0.48c-0.31-0.61-0.62-1.22-1-1.78c-0.42-0.63-0.92-1.21-1.37-1.82
		c-0.11-0.15-0.17-0.33-0.25-0.5c-0.04-0.08-0.08-0.18-0.15-0.24c-1.02-1.03-2.01-2.09-3.08-3.06c-0.5-0.45-1.15-0.72-1.72-1.09
		c-0.55-0.35-1.07-0.76-1.63-1.08c-1.5-0.88-3.13-1.41-4.81-1.82c-1.34-0.32-2.71-0.49-4.09-0.41c-0.6,0.03-1.19,0.12-1.79,0.2
		c-0.14,0.02-0.27,0.12-0.38,0.2c-0.24,0.16-0.42,0.41-0.78,0.19c-0.14-0.08-0.43,0-0.61,0.09c-0.95,0.44-1.94,0.81-2.81,1.37
		c-1.28,0.82-2.38,1.88-3.23,3.16c-0.57,0.85-1.17,1.68-1.74,2.54c-0.12,0.18-0.3,0.46,0.3,0.55c-1.1,0.22-0.9,1.19-1.3,1.78
		c-0.05,0.07,0.03,0.23,0.05,0.34c0.01,0.08,0.07,0.19,0.03,0.23c-0.76,0.82-0.36,1.85-0.52,2.78c-0.05,0-0.09,0-0.14,0.01
		c0-0.73-0.06-1.47,0.01-2.2c0.15-1.58,0.75-3.03,1.45-4.43c0.31-0.62,0.56-1.29,0.99-1.81c0.8-0.96,1.63-1.92,2.59-2.72
		c1-0.83,2.12-1.55,3.26-2.18c1.04-0.58,2.19-0.93,3.37-1.18c1.56-0.34,3.14-0.41,4.72-0.29c1.34,0.1,2.65,0.43,3.9,0.95
		c0.17,0.07,0.37,0.07,0.6,0.1c0.09,0.08,0.23,0.21,0.39,0.3c0.82,0.49,1.6,1.07,2.48,1.42c0.79,0.32,1.36,0.92,1.98,1.39
		c1.15,0.87,2.1,2.02,3.13,3.04c0.33,0.33,0.49,0.87,1.07,0.86c0.06,0.52,1.87,3.47,2.11,3.54c0.01,0.19-0.02,0.37,0.03,0.51
		c0.43,1.15,0.99,2.26,1.28,3.44c0.34,1.35,0.53,2.75,0.62,4.14c0.09,1.42,0.08,2.86-0.1,4.27c-0.19,1.45-0.51,2.91-1.01,4.29
		c-0.58,1.61-1.37,3.14-2.13,4.68c-0.3,0.6-0.77,1.12-1.2,1.64c-0.65,0.78-1.36,1.52-2,2.31c-0.28,0.35-0.73,0.61-0.73,1.15
		c0,0.09-0.15,0.26-0.23,0.27c-0.63,0.01-0.8,0.61-1.15,0.94c-0.72,0.68-1.37,1.44-2.03,2.18c-1.41,1.58-2.73,3.23-3.83,5.05
		c-0.4,0.66-0.86,1.28-1.3,1.91c-0.43,0.63-0.82,1.31-1.32,1.89c-0.52,0.61-1.12,1.16-1.73,1.68c-0.95,0.83-2.03,1.43-3.25,1.84
		c-0.86,0.29-1.72,0.34-2.59,0.37c-0.93,0.02-1.87,0.02-2.8-0.06c-1.15-0.09-2.18-0.54-3.2-1.07c-0.69-0.36-1.14-0.92-1.56-1.52
		c-0.43-0.62-0.57-1.35-0.59-2.11c-0.03-0.96-0.11-1.92-0.19-2.88C148.01,51.28,147.93,51.06,147.84,50.73z"/>
	<path class="st0" d="M143.75,77.85c-1.06,0-2.14,0.04-3.21-0.03c-0.23-0.02-0.49-0.45-0.64-0.74c-0.64-1.27-1.23-2.57-1.85-3.85
		c-0.49-1.01-1-2.01-1.5-3.01c-0.02-0.05-0.07-0.08-0.22-0.1c0.04,0.32,0.11,0.64,0.11,0.97c0.01,2.15,0.01,4.29-0.01,6.44
		c0,0.11-0.19,0.31-0.3,0.31c-1.01,0.02-2.03,0.01-3.1,0.01c-0.01-0.2-0.03-0.38-0.03-0.55c0-4.51,0-9.01-0.01-13.52
		c0-0.43,0.09-0.62,0.57-0.6c0.78,0.04,1.57,0.03,2.36,0c0.37-0.01,0.56,0.13,0.72,0.45c0.68,1.38,1.37,2.75,2.06,4.13
		c0.22,0.44,0.43,0.9,0.66,1.33c0.21,0.4,0.44,0.78,0.74,1.31c0.11-0.32,0.26-0.54,0.26-0.77c0.02-1.93,0.01-3.87,0.01-5.8
		c0-0.59,0.05-0.64,0.65-0.64c0.79,0,1.57,0.01,2.36,0c0.27,0,0.44,0.04,0.44,0.37c-0.01,4.72-0.01,9.44-0.01,14.16
		C143.81,77.74,143.78,77.77,143.75,77.85z"/>
	<path class="st0" d="M223.49,63.87c0.01,0.18-0.04,0.4,0.04,0.55c1.03,2.09,2.08,4.17,3.13,6.24c0.04,0.08,0.12,0.14,0.28,0.31
		c0-2.74,0-5.34,0-7.83c1.12,0.1,2.21,0.01,3.34,0.06c0,4.87,0,9.72,0,14.66c-1.14,0-2.29,0-3.43,0c-1.25-2.51-2.52-5.06-3.8-7.61
		c-0.04,0.01-0.07,0.03-0.11,0.04c0,2.49,0,4.98,0,7.56c-0.57,0-1.1,0-1.63,0c-0.43,0-0.85-0.03-1.28,0.01
		c-0.43,0.03-0.56-0.11-0.56-0.55c0.02-3.16,0.01-6.32,0.01-9.49c0-1.34,0.01-2.69-0.01-4.03c-0.01-0.44,0.15-0.62,0.6-0.6
		c0.8,0.02,1.61-0.01,2.41,0.02c0.18,0.01,0.38,0.13,0.54,0.24C223.21,63.57,223.36,63.75,223.49,63.87z"/>
	<path class="st0" d="M84.69,71.89c0,1.83-0.02,3.61,0.01,5.4c0.01,0.46-0.12,0.59-0.58,0.57c-0.93-0.03-1.86-0.01-2.83-0.01
		c-0.01-0.24-0.03-0.43-0.03-0.62c0-4.46-0.01-8.91,0.01-13.37c0-0.28,0.13-0.57,0.2-0.82c0.31,0.07,0.49,0.14,0.68,0.15
		c0.66,0.01,1.31,0.03,1.97,0c0.44-0.02,0.61,0.1,0.59,0.57c-0.03,1.18-0.02,2.36-0.01,3.54c0,0.42,0.04,0.84,0.06,1.28
		c0.88,0,1.81,0,2.78,0c0-0.89,0-1.75,0-2.61c0-0.75,0.02-1.51-0.01-2.26c-0.02-0.43,0.14-0.53,0.54-0.52
		c0.74,0.03,1.48,0.03,2.21,0c0.46-0.02,0.62,0.11,0.62,0.6c-0.02,3.39-0.01,6.78-0.01,10.17c0,1.28,0,2.55,0,3.86
		c-1.11,0-2.2,0-3.33,0c0-1.96,0-3.92,0-5.92C86.59,71.89,85.67,71.89,84.69,71.89z"/>
	<path class="st0" d="M183.17,77.85c0-0.23,0-0.4,0-0.58c0-4.49,0.01-8.98-0.01-13.46c0-0.51,0.15-0.65,0.64-0.62
		c1.24,0.06,2.48,0.02,3.72,0.13c1.24,0.11,2.38,0.56,3.34,1.41c1.28,1.14,1.77,2.66,1.93,4.27c0.11,1.17,0.02,2.36-0.07,3.54
		c-0.09,1.17-0.54,2.26-1.23,3.17c-0.39,0.51-0.84,1.11-1.54,1.33c-0.02,0-0.03,0.01-0.04,0.02c-0.73,0.94-1.85,0.61-2.78,0.75
		C185.87,77.99,184.55,77.85,183.17,77.85z M186.64,74.6c1.21-0.13,2.05-0.66,2.31-1.85c0.12-0.55,0.19-1.12,0.2-1.68
		c0.04-1.15,0.08-2.31-0.46-3.39c-0.42-0.84-1.28-1.33-2.06-1.16C186.64,69.19,186.64,71.86,186.64,74.6z"/>
	<path class="st0" d="M124.53,77.85c-1.1,0-2.18,0.01-3.26-0.02c-0.13,0-0.3-0.21-0.37-0.35c-0.23-0.52-0.36-1.09-0.65-1.57
		c-0.27-0.45-0.21-1.06-0.71-1.38c-0.05-0.03,0-0.19-0.03-0.28c-0.29-0.81-0.59-1.61-0.89-2.42c-0.05,0.01-0.1,0.03-0.16,0.04
		c0,1.97,0,3.93,0,5.98c-0.6,0-1.15,0-1.7,0c-0.48,0-0.95,0.02-1.42-0.02c-0.13-0.01-0.31-0.2-0.34-0.33
		c-0.05-0.25-0.02-0.52-0.02-0.78c0-4.28,0-8.55,0-12.83c0-0.67,0.03-0.69,0.69-0.69c0.98,0,1.97-0.03,2.95,0.01
		c1.07,0.04,2.18,0.07,3.12,0.61c1.21,0.69,2.03,1.73,2.19,3.19c0.14,1.3-0.19,2.48-0.9,3.55c-0.16,0.25-0.51,0.36-0.75,0.57
		c-0.1,0.09-0.21,0.3-0.17,0.4c0.5,1.3,1.02,2.59,1.54,3.88c0.29,0.74,0.58,1.48,0.87,2.22C124.55,77.68,124.53,77.75,124.53,77.85z
		 M118.46,66.21c0,1.02,0,2.03,0,3.04c0.39,0.15,0.74-0.09,1.12-0.01c0.35,0.07,0.84-0.53,0.9-0.96
		C120.69,66.93,119.88,66.09,118.46,66.21z"/>
	<path class="st0" d="M156.45,66.22c-1.08,0.45-2.14,0.89-3.21,1.33c-0.25-0.33-0.49-0.64-0.73-0.96c-0.33-0.44-0.82-0.42-1.25-0.32
		c-0.31,0.07-0.64,0.32-0.82,0.59c-0.54,0.8-0.61,1.76-0.6,2.68c0.01,1.2,0.12,2.41,0.22,3.61c0.02,0.18,0.21,0.35,0.33,0.53
		c0.07,0.1,0.22,0.21,0.2,0.29c-0.09,0.45,0.33,0.57,0.54,0.71c0.56,0.37,1.66-0.01,1.92-0.64c0.18-0.44,0.26-0.92,0.4-1.47
		c-0.58,0-1.04,0-1.54,0c0-1,0-1.94,0-2.93c0.11-0.01,0.23-0.04,0.36-0.04c1.39,0,2.79,0.01,4.18-0.01
		c0.37-0.01,0.48,0.12,0.47,0.48c-0.02,0.92,0.02,1.84-0.02,2.75c-0.07,1.44-0.51,2.78-1.42,3.9c-0.41,0.51-1.01,0.85-1.62,1.12
		c-1.37,0.62-2.73,0.46-4.1,0.03c-0.14-0.04-0.3-0.01-0.44-0.01c-0.15-0.15-0.29-0.35-0.49-0.48c-1.21-0.86-1.88-2.07-2.25-3.47
		c-0.46-1.76-0.51-3.55-0.3-5.34c0.17-1.5,0.58-2.94,1.58-4.1c0.75-0.86,1.74-1.4,2.89-1.55c0.86-0.11,1.72-0.23,2.59,0.1
		c1.25,0.48,2.15,1.3,2.75,2.47C156.2,65.7,156.3,65.92,156.45,66.22z"/>
	<path class="st0" d="M242.21,77.85c0-4.97,0-9.9,0-14.83c0.05,0.02,0.1,0.03,0.15,0.05c0.19,0.04,0.37,0.12,0.56,0.12
		c0.95,0.01,1.9-0.04,2.85,0.02c1.11,0.06,2.24,0.1,3.24,0.7c1.23,0.73,1.88,1.79,2.07,3.22c0.16,1.2-0.23,2.24-0.75,3.23
		c-0.21,0.41-0.76,0.65-1.16,0.98c0.86,2.16,1.72,4.3,2.6,6.51c-1.19,0-2.27,0-3.35-0.01c-0.1,0-0.25-0.09-0.3-0.18
		c-0.31-0.59-0.64-1.19-0.89-1.81c-0.25-0.63-0.41-1.3-0.64-1.94c-0.28-0.76-0.6-1.51-1.01-2.24c-0.01,0.13-0.03,0.27-0.03,0.4
		c0,1.69,0,3.37,0,5.06c0,0.71,0.01,0.71-0.71,0.71C243.99,77.85,243.12,77.85,242.21,77.85z M245.58,69.45
		c1.26,0.04,2.13-0.46,2.05-1.69c-0.07-1.02-0.72-1.59-2.05-1.55C245.58,67.27,245.58,68.34,245.58,69.45z"/>
	<path class="st0" d="M174.97,77.83c-1.2,0-2.32,0-3.5,0c-0.18-0.76-0.36-1.53-0.56-2.35c-1.12,0-2.26,0-3.43,0
		c-0.15,0.68-0.3,1.35-0.46,2.02c-0.08,0.33-0.23,0.41-0.62,0.37c-0.86-0.08-1.74-0.03-2.6-0.03c-0.09,0-0.19-0.02-0.34-0.03
		c1.3-4.88,2.59-9.74,3.88-14.62c1.18,0,2.32-0.01,3.47,0.01c0.12,0,0.31,0.13,0.34,0.24c0.28,1.01,0.53,2.03,0.8,3.05
		c0.48,1.79,0.97,3.59,1.45,5.38c0.44,1.66,0.87,3.32,1.31,4.98C174.79,77.16,174.88,77.48,174.97,77.83z M169.11,67.6
		c-0.34,1.79-0.64,3.44-0.96,5.11c0.63,0,1.25,0,1.99,0c-0.1-1.6-0.63-3.13-0.76-4.71C169.37,67.89,169.24,67.79,169.11,67.6z"/>
	<path class="st0" d="M113.47,77.85c-1.14,0-2.21,0.01-3.27-0.01c-0.11,0-0.3-0.15-0.33-0.26c-0.16-0.59-0.26-1.2-0.43-1.79
		c-0.04-0.14-0.24-0.32-0.37-0.33c-0.93-0.03-1.87,0-2.8-0.02c-0.34-0.01-0.37,0.24-0.42,0.43c-0.16,0.64-0.29,1.29-0.44,1.96
		c-1.15,0-2.28,0-3.46,0c0.21-0.8,0.41-1.58,0.61-2.36c0.4-1.55,0.79-3.1,1.2-4.64c0.52-1.95,1.06-3.9,1.59-5.85
		c0.12-0.45,0.26-0.9,0.36-1.36c0.07-0.32,0.23-0.43,0.55-0.42c0.97,0.01,1.93,0.01,2.9,0c0.31,0,0.46,0.12,0.54,0.43
		c0.8,3.09,1.62,6.18,2.44,9.27C112.57,74.51,113.01,76.13,113.47,77.85z M107.71,67.55c-0.05-0.01-0.1-0.02-0.15-0.03
		c-0.13,0.89-0.27,1.77-0.37,2.47c-0.22,1.02-0.4,1.86-0.59,2.73c0.71,0,1.37,0,2.1,0C108.36,70.97,108.04,69.26,107.71,67.55z"/>
	<path class="st0" d="M253.55,63.21c2.26,0,4.48,0,6.76,0c0,1.01,0.01,2-0.02,3c0,0.08-0.25,0.22-0.38,0.22
		c-0.82,0.02-1.64,0.01-2.46,0.01c-0.16,0-0.32,0-0.57,0c0.05,0.54,0.11,1.01,0.13,1.49c0.01,0.23-0.06,0.47-0.09,0.7
		c-0.03,0.27,0.08,0.38,0.36,0.37c0.83-0.02,1.66-0.01,2.54-0.01c0,0.99,0.01,1.94-0.02,2.88c0,0.09-0.23,0.24-0.37,0.25
		c-0.51,0.03-1.02,0-1.52,0.02c-0.32,0.01-0.64,0.06-0.98,0.09c0,0.84,0,1.62,0,2.46c1.1,0,2.21,0,3.34,0c0,1.07,0,2.08,0,3.12
		c-2.23,0-4.47,0-6.69,0c-0.25-0.35-0.09-0.73-0.09-1.1c0.01-4.03,0.02-8.06-0.01-12.09C253.5,64.17,253.51,63.72,253.55,63.21z"/>
	<path class="st0" d="M210.27,63.19c2.16,0,4.29-0.01,6.42,0.02c0.11,0,0.32,0.22,0.32,0.35c0.03,0.83,0.01,1.67,0.02,2.51
		c0.01,0.31-0.12,0.39-0.41,0.38c-0.98-0.01-1.96,0-2.97,0c0,0.86,0,1.68,0,2.55c0.95,0,1.9,0,2.9,0c0,1,0.01,1.94-0.02,2.89
		c0,0.09-0.26,0.25-0.4,0.25c-0.8,0.02-1.6,0.01-2.45,0.01c0,0.85,0,1.68,0,2.54c1.09,0,2.18,0,3.35,0c0,0.42-0.01,0.81,0,1.19
		c0.01,0.57,0.05,1.14,0.06,1.7c0,0.09-0.08,0.18-0.14,0.25c-0.02,0.03-0.09,0.02-0.14,0.02c-2.16,0-4.32,0-6.53,0
		C210.27,72.96,210.27,68.11,210.27,63.19z"/>
	<path class="st0" d="M100.71,63.23c0,1.06,0,2.11,0,3.2c-1.18,0-2.27,0-3.39,0c0,0.86,0,1.68,0,2.54c0.94,0,1.88,0,2.91,0
		c0,0.35,0,0.66,0,0.96c0,0.61-0.01,1.21,0,1.82c0.01,0.3-0.11,0.4-0.41,0.4c-0.83-0.01-1.66,0-2.52,0c0,0.87,0,1.68,0,2.54
		c1.12,0,2.22,0,3.36,0c0,1.07,0,2.09,0,3.14c-2.25,0-4.47,0-6.73,0c0-4.85,0-9.7,0-14.59C96.16,63.23,98.36,63.23,100.71,63.23z"/>
	<path class="st0" d="M208.17,66.65c-0.46-0.09-0.85-0.17-1.25-0.23c-1.41-0.2-2.37,0.38-2.96,1.71c-0.21,0.47-0.39,0.96-0.47,1.46
		c-0.05,0.28,0.12,0.59,0.18,0.89c0.02,0.1,0.1,0.27,0.06,0.3c-0.59,0.47-0.16,1.02-0.05,1.48c0.23,0.93,0.78,1.69,1.66,2.13
		c0.76,0.38,1.56,0.28,2.35,0.07c0.14-0.04,0.28-0.08,0.49-0.14c0,0.77,0,1.49,0,2.22c0,0.15,0,0.29,0,0.44
		c0.01,1.25,0.08,0.92-1.02,1.16c-1.45,0.31-2.83-0.01-4.1-0.81c-1.62-1.01-2.51-2.53-2.92-4.32c-0.22-0.96-0.32-1.96-0.31-2.94
		c0.01-1.61,0.43-3.12,1.34-4.5c0.47-0.71,1.06-1.25,1.73-1.73c0.94-0.67,1.56-0.9,2.71-0.92c0.74-0.02,1.48,0.03,2.21,0.1
		c0.13,0.01,0.33,0.22,0.33,0.34C208.18,64.43,208.17,65.51,208.17,66.65z"/>
	<path class="st0" d="M234.52,66.66c-0.73,0-1.46,0-2.22,0c0-1.16,0-2.27,0-3.44c0.13-0.01,0.27-0.03,0.41-0.03
		c2.33,0,4.65,0.01,6.98-0.01c0.44,0,0.57,0.13,0.55,0.56c-0.03,0.94-0.01,1.89-0.01,2.88c-0.77,0-1.48,0-2.26,0
		c0,0.22,0,0.39,0,0.57c0,3.34-0.01,6.68,0.01,10.02c0,0.48-0.1,0.67-0.62,0.64c-0.82-0.04-1.64-0.02-2.46-0.01
		c-0.32,0-0.58-0.02-0.39-0.45c0.03-0.07,0.01-0.16,0.01-0.24c0-3.41,0-6.81,0-10.22C234.53,66.86,234.53,66.77,234.52,66.66z"/>
	<path class="st0" d="M126.5,77.85c0-0.21,0-0.35,0-0.5c0-4.52,0.01-9.04-0.01-13.56c0-0.48,0.13-0.63,0.61-0.6
		c0.79,0.04,1.57,0.03,2.36,0c0.38-0.01,0.5,0.15,0.49,0.49c0,0.08,0,0.16,0,0.25c0,4.44-0.01,8.88,0.01,13.32
		c0,0.51-0.15,0.64-0.64,0.62C128.4,77.82,127.48,77.85,126.5,77.85z"/>
	<path class="st0" d="M179.99,77.83c-1.1,0-2.17,0-3.28,0c-0.01-0.17-0.03-0.33-0.03-0.49c0-4.52,0.01-9.03-0.01-13.55
		c0-0.47,0.13-0.63,0.6-0.61c0.77,0.04,1.54,0.02,2.31,0.01c0.3-0.01,0.45,0.07,0.45,0.41c-0.01,4.7-0.01,9.39-0.01,14.09
		C180.02,77.72,180.01,77.75,179.99,77.83z"/>
	<path class="st0" d="M255.29,91.65c0.53,0.09,0.96,0.18,1.39,0.22c1.36,0.13,1.97-0.46,1.96-1.75c0-0.16,0-0.32,0-0.43
		c-0.55,0.12-1.08,0.32-1.61,0.34c-1.49,0.06-2.07-0.69-2.3-2.05c-0.16-0.95,0.13-1.85,0.82-2.55c0.84-0.85,1.92-0.92,3.03-0.79
		c0.34,0.04,0.67,0.11,1.01,0.17c0.31,0.05,0.44,0.21,0.44,0.53c-0.01,1.36,0.02,2.72-0.01,4.08c-0.02,0.68-0.03,1.39-0.23,2.03
		c-0.27,0.86-0.97,1.39-1.86,1.48c-0.69,0.07-1.4,0.01-2.1-0.03c-0.38-0.02-0.62-0.24-0.53-0.68
		C255.32,92.04,255.29,91.86,255.29,91.65z M258.63,85.68c-0.72-0.07-1.34-0.13-1.94,0.33c-0.53,0.41-0.87,1.95-0.44,2.46
		c0.66,0.77,1.27,0.69,2,0.21c0.18-0.12,0.34-0.39,0.35-0.59C258.66,87.31,258.63,86.52,258.63,85.68z"/>
	<path class="st0" d="M250.23,4.78c0.44-1.03,0.87-2.06,1.31-3.09c0.18-0.43,0.35-0.87,0.56-1.29c0.17-0.35,0.66-0.49,1.13-0.35
		c0.36,0.11,0.37,0.41,0.37,0.71c0,1.69,0,3.38,0,5.06c0,0.49-0.33,0.69-0.73,0.44c-0.1-0.06-0.17-0.24-0.17-0.37
		c-0.01-1.41,0-2.82,0-4.23c0-0.07-0.04-0.14-0.1-0.37c-0.21,0.49-0.38,0.84-0.53,1.2c-0.44,1.12-0.86,2.26-1.31,3.38
		c-0.11,0.29-0.31,0.51-0.7,0.51c-0.51,0-0.53-0.45-0.65-0.73c-0.33-0.75-0.56-1.55-0.85-2.32c-0.13-0.36-0.38-0.5-0.83-0.49
		c-0.02,0.2-0.06,0.41-0.06,0.61c-0.01,0.82-0.01,1.64,0,2.46c0,0.31-0.17,0.45-0.45,0.45c-0.27,0-0.46-0.12-0.45-0.44
		c0.01-1.77-0.01-3.54,0.02-5.31c0-0.18,0.17-0.49,0.31-0.53c0.38-0.09,0.86-0.19,1.12,0.21c0.27,0.42,0.46,0.9,0.65,1.36
		c0.42,1.04,0.82,2.09,1.23,3.14C250.14,4.79,250.18,4.79,250.23,4.78z"/>
	<path class="st0" d="M222.17,81.79c0.42,0,0.84-0.02,1.25,0.02c0.08,0.01,0.18,0.24,0.19,0.37c0.02,0.93,0.01,1.87,0.01,2.79
		c0.49-0.12,0.96-0.31,1.45-0.35c1.33-0.12,1.91,0.74,1.98,1.81c0.07,1.09,0.02,2.19,0,3.29c0,0.11-0.19,0.31-0.29,0.31
		c-1.23,0.02-0.97,0.13-1.01-0.9c-0.03-0.6-0.21-1.23-0.1-1.8c0.08-0.42,0.08-0.77-0.07-1.14c-0.07-0.17-0.21-0.43-0.35-0.44
		c-0.3-0.04-0.61,0.05-0.91,0.09c-0.05,0.01-0.09,0.08-0.14,0.08c-0.39,0.02-0.56,0.23-0.56,0.62c0.01,0.98-0.02,1.97,0.01,2.95
		c0.01,0.42-0.1,0.63-0.55,0.56c-0.1-0.01-0.2-0.01-0.29,0c-0.43,0.06-0.56-0.11-0.56-0.54c0.02-2.31,0.01-4.62,0.01-6.93
		C222.23,82.36,222.2,82.16,222.17,81.79z"/>
	<path class="st0" d="M233.46,88.54c0,0.21-0.02,0.36,0,0.5c0.07,0.39-0.11,0.58-0.45,0.73c-1.1,0.47-2.22,0.55-3.31,0.03
		c-0.57-0.27-0.94-0.78-1.13-1.4c-0.31-0.97-0.18-2.4,0.73-3.14c1.02-0.83,2.8-1.03,3.86,0.18c0.31,0.35,0.37,0.94,0.49,1.44
		c0.06,0.26,0.01,0.55,0.01,0.91c-0.23,0-0.43,0-0.64,0c-0.93,0-1.87-0.01-2.8,0c-0.46,0-0.54,0.15-0.3,0.56
		c0.37,0.63,1.33,0.92,2.17,0.66C232.52,88.86,232.95,88.71,233.46,88.54z M232.35,86.72c-0.17-0.89-0.75-1.05-1.41-1.03
		c-0.69,0.03-1.07,0.4-1.12,1.03C230.66,86.72,231.48,86.72,232.35,86.72z"/>
	<path class="st0" d="M207.68,88.53c0,0.21-0.02,0.34,0,0.47c0.07,0.4-0.09,0.64-0.47,0.77c-1.26,0.43-2.53,0.7-3.68-0.23
		c-0.82-0.66-1.05-1.56-0.91-2.6c0.13-0.99,0.59-1.71,1.52-2.07c0.53-0.21,1.1-0.29,1.66-0.41c0.05-0.01,0.13,0.06,0.19,0.09
		c0.91,0.45,1.73,0.97,1.78,2.13c0,0.1-0.01,0.2,0,0.29c0.07,0.82,0.07,0.8-0.75,0.83c-0.35,0.01-0.7,0.16-1.04,0.15
		c-0.56-0.01-1.12-0.11-1.68-0.16c-0.11-0.01-0.22,0.01-0.34,0.02c0.05,0.8,0.79,1.36,1.55,1.22c0.35-0.06,0.71-0.02,1.05-0.1
		C206.92,88.85,207.26,88.68,207.68,88.53z M206.45,86.72c0-0.63-0.39-1.01-1.03-1.06c-0.61-0.04-1.49,0.31-1.44,1.06
		C204.8,86.72,205.61,86.72,206.45,86.72z"/>
	<path class="st0" d="M214.35,89.09c0.03,0.39,0.18,0.8-0.25,1.02c-0.43,0.23-1.32-0.06-1.69-0.5c-0.46,0.16-0.9,0.32-1.36,0.46
		c-0.77,0.24-1.42-0.12-1.95-0.58c-0.55-0.48-0.18-2.07,0.54-2.38c0.51-0.22,1.08-0.31,1.63-0.41c0.28-0.05,0.59-0.01,0.87-0.01
		c0.18-0.64-0.29-1.04-0.96-1.02c-0.51,0.02-1.01,0.17-1.51,0.26c-0.22-0.9-0.15-1.05,1.05-1.28c0.67-0.13,1.37-0.17,2.02,0.26
		c0.45,0.29,0.68,0.68,0.72,1.15c0.08,0.78,0.09,1.56,0.11,2.34C213.59,89.1,213.58,89.1,214.35,89.09z M212.19,87.64
		c-0.61,0.02-1.2-0.15-1.71,0.33c-0.33,0.3-0.34,0.77,0.05,0.99c0.51,0.29,0.97,0.09,1.41-0.17
		C212.41,88.51,212.13,88.06,212.19,87.64z"/>
	<path class="st0" d="M187.41,89.09c-0.12,0.35-0.14,0.76-0.34,0.89c-0.57,0.37-1.25,0.18-1.81-0.41c-0.67,0.4-1.34,0.71-2.17,0.49
		c-0.79-0.21-1.26-0.67-1.29-1.47c-0.03-0.8,0.46-1.51,1.18-1.69c0.34-0.09,0.69-0.16,1.05-0.2c0.36-0.03,0.72-0.01,1.07-0.01
		c0.05-0.61-0.23-1.02-0.77-1.01c-0.6,0.02-1.21,0.15-1.83,0.24c0-0.07-0.02-0.2-0.02-0.33c-0.01-0.63,0.13-0.82,0.76-0.86
		c0.62-0.04,1.25-0.04,1.87,0c0.72,0.04,1.11,0.75,1.33,1.31c0.15,0.38,0,0.73,0.01,1.09c0.01,0.39,0,0.79,0,1.18
		C186.45,89.05,186.5,89.09,187.41,89.09z M185.1,87.68c-0.81-0.14-1.42-0.06-1.77,0.34c-0.14,0.16-0.16,0.48-0.13,0.71
		c0.02,0.13,0.24,0.3,0.4,0.34C184.5,89.27,185.22,88.59,185.1,87.68z"/>
	<path class="st0" d="M240.33,89.09c-0.12,0.35-0.14,0.75-0.33,0.88c-0.59,0.38-1.33,0.17-1.76-0.35c-0.46,0.15-0.89,0.33-1.33,0.43
		c-1.28,0.31-2.27-0.58-2.18-1.68c0.08-0.97,0.83-1.63,2.11-1.68c0.41-0.01,0.82,0,1.23,0c-0.1-0.81-0.43-1.1-1.19-1.02
		c-0.48,0.05-0.94,0.17-1.42,0.26c-0.03-0.27-0.05-0.56-0.09-0.9c1.02-0.51,2.1-0.71,3.16-0.1c0.32,0.18,0.54,0.57,0.73,0.9
		c0.21,0.37,0.22,0.79,0.14,1.24c-0.07,0.4-0.02,0.82-0.01,1.23C239.37,89.05,239.41,89.09,240.33,89.09z M238,87.53
		c-0.53,0.09-1.07,0.15-1.58,0.29c-0.35,0.09-0.42,0.43-0.37,0.76c0.05,0.32,0.26,0.51,0.59,0.55
		C237.62,89.24,238.2,88.63,238,87.53z"/>
	<path class="st0" d="M144.2,87.36c-0.15-1.82,1.23-2.79,2.86-2.76c1.58,0.02,2.8,0.96,2.66,3.01c-0.11,1.65-1.22,2.51-2.85,2.52
		C145.31,90.13,144.1,89.2,144.2,87.36z M148.43,87.25c0-0.04-0.01-0.2-0.03-0.37c-0.07-0.64-0.43-1.02-1.05-1.16
		c-0.64-0.14-1.26,0.05-1.58,0.59c-0.36,0.59-0.37,1.25-0.1,1.87c0.21,0.47,0.53,0.87,1.13,0.89
		C147.87,89.1,148.42,88.53,148.43,87.25z"/>
	<path class="st0" d="M172.56,84.75c-0.25,0.63-0.46,1.21-0.7,1.77c-0.84,1.99-1.67,3.98-2.11,6.11c-0.06,0.27-0.17,0.39-0.46,0.37
		c-0.27-0.03-0.55-0.01-0.98-0.01c0.2-0.7,0.38-1.34,0.58-1.97c0.09-0.28,0.24-0.54,0.29-0.82c0.05-0.26,0.06-0.56-0.03-0.79
		c-0.59-1.42-1.23-2.82-1.84-4.23c-0.05-0.13-0.07-0.27-0.11-0.41c0.1-0.02,0.14-0.03,0.19-0.03c1.26-0.04,1.24-0.04,1.62,1.14
		c0.25,0.77,0.56,1.51,0.89,2.38c0.46-1.23,0.89-2.36,1.32-3.5C171.65,84.75,172.08,84.75,172.56,84.75z"/>
	<path class="st0" d="M248.59,84.78c1.02-0.12,1.15-0.09,1.39,0.26c0.25-0.11,0.49-0.23,0.75-0.32c0.85-0.31,2.2-0.06,2.51,1.07
		c0.03,0.12,0.17,0.22,0.23,0.29c-0.04,0.2-0.1,0.37-0.11,0.54c-0.01,0.98-0.02,1.97,0,2.95c0.01,0.4-0.13,0.53-0.51,0.49
		c-0.24-0.03-0.48,0-0.8,0c0-0.42,0-0.79,0-1.16c0-0.69,0.01-1.38,0-2.07c-0.02-0.91-0.39-1.13-0.9-1.12
		c-0.68,0.01-1.3,0.35-1.27,1.12c0.04,1.04,0.01,2.09,0.01,3.22c-0.37,0-0.71,0.02-1.04-0.02c-0.1-0.01-0.25-0.2-0.25-0.31
		C248.58,88.07,248.59,86.44,248.59,84.78z"/>
	<path class="st0" d="M143.32,84.73c0.01,0.2,0.02,0.36,0.03,0.52c0.04,0.32-0.1,0.43-0.42,0.43c-0.76,0.01-0.76,0.02-0.76,0.77
		c0,1.03-0.01,2.06,0,3.1c0.01,0.37-0.09,0.52-0.5,0.51c-0.97-0.04-0.81,0.07-0.81-0.81c-0.01-1.18,0-2.35,0-3.52
		c-1.09-0.13-1.09-0.13-0.91-0.93c0.9-0.16,0.9-0.16,0.91-1.16c0.01-0.47,0.08-0.9,0.37-1.33c0.45-0.66,1.08-0.72,1.75-0.63
		c0.13,0.02,0.29,0.25,0.35,0.41c0.06,0.19,0.01,0.42,0.01,0.69c-0.26,0-0.48-0.01-0.7,0c-0.38,0.03-0.3,0.22-0.09,0.41
		c-0.43,0.18-0.5,0.59-0.32,1.55C142.58,84.73,142.93,84.73,143.32,84.73z"/>
	<path class="st0" d="M162.37,88.53c0.11,1.28,0.1,1.09-0.72,1.4c-0.76,0.28-1.55,0.35-2.32,0.01c-1.4-0.61-1.99-2.42-1.25-3.85
		c0.18-0.35,0.34-0.85,0.65-0.98c0.77-0.34,1.6-0.65,2.49-0.45c0.06,0.01,0.12,0.06,0.18,0.08c1.1,0.24,1.1,0.24,1,1.4
		c-0.2-0.07-0.38-0.13-0.6-0.21c-0.07,0.08-0.17,0.18-0.3,0.33c-0.04-0.2-0.07-0.35-0.1-0.52c-0.37,0-0.74-0.06-1.08,0.01
		c-0.85,0.18-1.29,0.88-1.18,1.78c0.12,0.95,0.5,1.52,1.15,1.51c0.52-0.01,1.04-0.17,1.56-0.28
		C162.01,88.72,162.16,88.62,162.37,88.53z"/>
	<path class="st0" d="M198.37,86.12c-0.53-0.13-1.06-0.36-1.61-0.38c-0.63-0.03-1.31,0.11-1.54,0.84c-0.24,0.75-0.18,1.69,0.36,2.14
		c0.66,0.55,1.33,0.35,2.02,0.12c0.23-0.07,0.44-0.18,0.67-0.28c0.22,1.01-0.08,1.35-1.09,1.5c-0.98,0.14-1.89,0.09-2.61-0.62
		c-0.3-0.29-0.55-0.72-0.66-1.12c-0.37-1.44,0.03-2.77,1.39-3.44c0.89-0.44,1.8-0.31,2.7-0.03c0.26,0.08,0.39,0.25,0.35,0.55
		C198.31,85.65,198.35,85.91,198.37,86.12z"/>
	<path class="st0" d="M178.27,83.62c0.44-0.12,0.83-0.23,1.17-0.33c0.25,0.31-0.03,0.76,0.46,0.81c-0.04,0.11-0.07,0.23-0.13,0.34
		c-0.04,0.06-0.12,0.1-0.16,0.26c0.46,0,0.91,0,1.44,0c-0.03,0.42-0.05,0.76-0.07,1.18c-0.19-0.1-0.25-0.15-0.32-0.17
		c-0.77-0.23-1.06-0.02-1.06,0.78c0,0.59,0.02,1.18-0.01,1.77c-0.03,0.63,0.15,0.89,0.9,0.83c0.13-0.01,0.26,0,0.38,0
		c0.17,0.78,0.17,0.78-0.67,0.98c-0.89,0.22-1.4,0.05-1.74-0.69c-0.15-0.32-0.17-0.72-0.18-1.09c-0.03-0.85-0.01-1.7-0.01-2.52
		c-0.34-0.08-0.69-0.09-0.92-0.26c-0.12-0.09-0.04-0.45-0.05-0.69c0.37-0.08,0.72-0.1,1.02-0.22
		C178.56,84.49,178.57,83.99,178.27,83.62z"/>
	<path class="st0" d="M173.06,88.62c0.53,0.16,1.03,0.34,1.54,0.44c0.31,0.06,0.69,0.01,0.77-0.41c0.09-0.44-0.27-0.51-0.57-0.7
		c-0.43-0.28-0.98-0.26-1.36-0.74c-0.66-0.81-0.37-2.08,0.73-2.48c0.63-0.23,1.25-0.15,1.86,0.03c0.38,0.11,0.45,0.4,0.3,1.17
		c-0.16-0.04-0.31-0.08-0.47-0.11c-0.28-0.06-0.58-0.17-0.85-0.13c-0.25,0.04-0.61,0.21-0.67,0.4c-0.13,0.38,0.23,0.53,0.55,0.66
		c0.48,0.2,0.96,0.4,1.41,0.66c0.36,0.21,0.45,1.3,0.2,1.78c-0.38,0.73-1.4,1.15-2.26,0.92c-0.05-0.01-0.09-0.05-0.13-0.06
		C173.03,89.81,172.96,89.72,173.06,88.62z"/>
	<path class="st0" d="M188.31,90.04c0-2.79,0-5.5,0-8.24c0.41,0,0.8,0,1.27,0c0,0.17,0,0.34,0,0.51c0,2.34,0,4.69,0,7.03
		c0,0.7,0,0.7-0.68,0.7C188.72,90.04,188.54,90.04,188.31,90.04z"/>
	<path class="st0" d="M201.05,90c-1.26,0.13-1.26,0.13-1.26-1.05c0-2.21,0-4.41,0-6.62c0-0.16,0-0.32,0-0.52c0.43,0,0.83,0,1.26,0
		C201.05,84.53,201.05,87.25,201.05,90z"/>
	<path class="st0" d="M151.11,84.73c0.47,0.07,0.96-0.2,1.34,0.27c0.03,0.04,0.28-0.09,0.42-0.14c0.26-0.09,0.53-0.27,0.79-0.26
		c0.68,0.03,0.76,0.2,0.64,1.22c-0.26,0-0.53,0-0.8,0c-0.65,0-0.9,0.21-0.91,0.87c-0.02,0.95-0.03,1.9,0,2.85
		c0.01,0.42-0.14,0.53-0.54,0.52c-0.95-0.03-0.84,0.09-0.86-0.83c-0.02-1.39-0.06-2.77-0.09-4.16
		C151.1,84.96,151.11,84.86,151.11,84.73z"/>
	<path class="st0" d="M166.94,85.82c-0.25,0-0.44,0.01-0.63,0c-0.87-0.03-1.14,0.22-1.14,1.08c-0.01,0.88-0.01,1.77,0,2.65
		c0.01,0.34-0.07,0.51-0.46,0.5c-1.08-0.03-0.91,0.1-0.93-0.91c-0.03-1.34-0.06-2.68-0.09-4.02c0-0.11,0-0.22,0-0.33
		c1.02-0.17,1.09-0.14,1.26,0.75c0.23-0.4,0.39-0.69,0.57-1c0.12,0.01,0.38,0.04,0.64,0.06c0.65,0.03,0.78,0.16,0.78,0.81
		C166.94,85.52,166.94,85.64,166.94,85.82z"/>
	<path class="st0" d="M216.63,90c-1.29,0.12-1.29,0.12-1.29-1.05c0-0.8,0.01-1.6-0.01-2.4c-0.01-0.59-0.08-1.17-0.12-1.75
		c0.92-0.21,0.98-0.19,1.3,0.47c0.52-0.51,1.08-0.97,1.86-0.46c0,0.31,0,0.65,0,1c-0.3,0-0.59,0.01-0.88,0
		c-0.49-0.01-0.73,0.26-0.76,0.7c-0.06,0.86-0.08,1.72-0.11,2.58C216.62,89.39,216.63,89.68,216.63,90z"/>
	<path class="st0" d="M241.1,84.77c0.94-0.14,0.99-0.12,1.19,0.51c0.15-0.12,0.29-0.21,0.41-0.32c0.4-0.39,0.96-0.5,1.42-0.21
		c0.1,0.07,0.14,0.27,0.16,0.41c0.03,0.2,0.01,0.42,0.01,0.65c-0.28,0-0.51,0-0.73,0c-0.73-0.01-1.01,0.23-1.03,0.97
		c-0.02,0.9-0.01,1.8-0.01,2.7c0,0.6-0.01,0.6-0.62,0.56c-0.2-0.01-0.39,0-0.61,0C241.22,88.27,241.16,86.53,241.1,84.77z"/>
	<path class="st0" d="M244.19,0.87c-0.04,0.68-0.09,1.33-0.1,1.97c-0.02,0.93,0,1.87,0,2.8c0,0.76-0.15,0.86-0.9,0.57
		c0-1.75,0-3.52,0-5.28c-0.63-0.03-1.23-0.06-1.82-0.08c-0.07-0.26-0.14-0.5-0.22-0.81c0.95,0,1.9,0,2.84,0c0.48,0,0.95,0.01,1.43,0
		c0.31-0.01,0.54,0.02,0.53,0.44c-0.01,0.39-0.23,0.41-0.51,0.4C245.09,0.87,244.73,0.87,244.19,0.87z"/>
	<path class="st0" d="M245.43,84.75c0.46,0,0.85,0,1.28,0c0.01,0.15,0.03,0.29,0.03,0.43c0,1.45-0.01,2.91,0.01,4.36
		c0,0.37-0.07,0.53-0.48,0.51c-0.93-0.04-0.83,0.13-0.83-0.84C245.43,87.74,245.43,86.27,245.43,84.75z"/>
	<path class="st0" d="M246.09,83.94c-0.53,0-0.83-0.22-0.82-0.61c0-0.31,0.43-0.84,0.69-0.85c0.36-0.01,0.96,0.51,0.95,0.83
		C246.91,83.68,246.56,83.94,246.09,83.94z"/>
</g>
</svg>
